<svg xmlns="http://www.w3.org/2000/svg" xmlns:xlink="http://www.w3.org/1999/xlink" viewBox="0 0 350 350"><defs><style>.cls-1{fill:#135bea;}.cls-2{fill:#fff;}.cls-3{fill:url(#linear-gradient);}.cls-4{fill:url(#linear-gradient-2);}.cls-5{fill:url(#linear-gradient-3);}.cls-6{fill:url(#linear-gradient-4);}.cls-7{fill:url(#linear-gradient-5);}.cls-8{fill:url(#linear-gradient-6);}.cls-9{fill:url(#linear-gradient-7);}.cls-10{fill:url(#linear-gradient-8);}.cls-11{fill:url(#linear-gradient-9);}.cls-12{fill:url(#linear-gradient-10);}.cls-13{fill:url(#linear-gradient-11);}.cls-14{fill:url(#linear-gradient-12);}.cls-15{fill:url(#linear-gradient-13);}.cls-16{fill:url(#linear-gradient-14);}.cls-17{fill:url(#linear-gradient-15);}.cls-18{fill:url(#linear-gradient-16);}</style><linearGradient id="linear-gradient" x1="129.27" y1="144.87" x2="139.09" y2="144.87" gradientUnits="userSpaceOnUse"><stop offset="0" stop-color="#fff" stop-opacity="0"/><stop offset="1" stop-color="#6d6e71" stop-opacity="0.3"/></linearGradient><linearGradient id="linear-gradient-2" x1="-1515.51" y1="80.24" x2="-1505.69" y2="80.24" gradientTransform="translate(1662.03 64.63)" xlink:href="#linear-gradient"/><linearGradient id="linear-gradient-3" x1="111.84" y1="205.33" x2="121.66" y2="205.33" xlink:href="#linear-gradient"/><linearGradient id="linear-gradient-4" x1="-1498.08" y1="19.78" x2="-1488.26" y2="19.78" gradientTransform="translate(1627.18 185.54)" xlink:href="#linear-gradient"/><linearGradient id="linear-gradient-5" x1="-675.42" y1="-624.19" x2="-665.6" y2="-624.19" gradientTransform="translate(834.92 799.46)" xlink:href="#linear-gradient"/><linearGradient id="linear-gradient-6" x1="-710.82" y1="849.3" x2="-701" y2="849.3" gradientTransform="translate(870.32 -656.77)" xlink:href="#linear-gradient"/><linearGradient id="linear-gradient-7" x1="68.99" y1="144.87" x2="78.8" y2="144.87" xlink:href="#linear-gradient"/><linearGradient id="linear-gradient-8" x1="-1704.83" y1="80.24" x2="-1695.01" y2="80.24" gradientTransform="translate(1790.89 64.63)" xlink:href="#linear-gradient"/><linearGradient id="linear-gradient-9" x1="125.47" y1="159.23" x2="125.47" y2="149.15" xlink:href="#linear-gradient"/><linearGradient id="linear-gradient-10" x1="-1591.91" y1="55.31" x2="-1591.91" y2="45.23" gradientTransform="translate(-1466.44 185.83) rotate(180)" xlink:href="#linear-gradient"/><linearGradient id="linear-gradient-11" x1="-754.17" y1="1156.39" x2="-754.17" y2="1146.31" gradientTransform="translate(-1038.09 -527.32) rotate(-90)" xlink:href="#linear-gradient"/><linearGradient id="linear-gradient-12" x1="-712.28" y1="-941.85" x2="-712.28" y2="-951.93" gradientTransform="translate(-852.26 939.12) rotate(90)" xlink:href="#linear-gradient"/><linearGradient id="linear-gradient-13" x1="-575.11" y1="-666.41" x2="-575.11" y2="-676.49" gradientTransform="translate(-516.36 741.49) rotate(90)" xlink:href="#linear-gradient"/><linearGradient id="linear-gradient-14" x1="-891.34" y1="880.95" x2="-891.34" y2="870.88" gradientTransform="translate(-702.19 -724.95) rotate(-90)" xlink:href="#linear-gradient"/><linearGradient id="linear-gradient-15" x1="-1369.99" y1="205.54" x2="-1369.99" y2="195.46" gradientTransform="translate(-1227.1 396.51) rotate(180)" xlink:href="#linear-gradient"/><linearGradient id="linear-gradient-16" x1="-96.45" y1="9.01" x2="-96.45" y2="-1.07" gradientTransform="translate(239.35 210.68)" xlink:href="#linear-gradient"/></defs><g id="Bg"><rect class="cls-1" x="1.51" width="350" height="350"/></g><g id="Main"><g id="Rings"><path class="cls-2" d="M113.24,119.72H94.66A15.88,15.88,0,0,0,78.8,135.58v18.58A15.88,15.88,0,0,0,94.66,170h18.58a15.89,15.89,0,0,0,15-10.72,15.62,15.62,0,0,0,.86-5.14V135.58A15.88,15.88,0,0,0,113.24,119.72Zm8.59,34.44a8.6,8.6,0,0,1-8.59,8.59H94.66a8.6,8.6,0,0,1-8.6-8.59V135.58a8.61,8.61,0,0,1,8.6-8.6h18.58a8.6,8.6,0,0,1,8.59,8.6Z"/><path class="cls-2" d="M173.7,119.72H155.12a15.88,15.88,0,0,0-15.86,15.86v18.58A15.88,15.88,0,0,0,155.12,170H173.7a15.88,15.88,0,0,0,15.86-15.86V135.58A15.88,15.88,0,0,0,173.7,119.72Zm8.59,34.44a8.6,8.6,0,0,1-8.59,8.59H155.12a8.6,8.6,0,0,1-8.6-8.59V135.58a8.61,8.61,0,0,1,8.6-8.6H173.7a8.6,8.6,0,0,1,8.59,8.6Z"/><path class="cls-2" d="M113.24,180.18H94.66A15.88,15.88,0,0,0,78.8,196v18.58a15.88,15.88,0,0,0,15.86,15.85h18.58a15.88,15.88,0,0,0,15.86-15.85V196A15.88,15.88,0,0,0,113.24,180.18Zm8.59,34.44a8.6,8.6,0,0,1-8.59,8.59H94.66a8.61,8.61,0,0,1-8.6-8.59V196a8.61,8.61,0,0,1,8.6-8.6h18.58a8.6,8.6,0,0,1,8.59,8.6Z"/><path class="cls-2" d="M173.7,180.18H155.12A15.88,15.88,0,0,0,139.26,196v18.58a15.88,15.88,0,0,0,15.86,15.85H173.7a15.88,15.88,0,0,0,15.86-15.85V196A15.88,15.88,0,0,0,173.7,180.18Zm8.59,34.44a8.6,8.6,0,0,1-8.59,8.59H155.12a8.61,8.61,0,0,1-8.6-8.59V196a8.61,8.61,0,0,1,8.6-8.6H173.7a8.6,8.6,0,0,1,8.59,8.6Z"/></g><path class="cls-2" d="M108.55,242.42h-9.2V216.27a15.56,15.56,0,0,1,15.54-15.54h38.58a6.34,6.34,0,0,0,6.34-6.34V155.81a6.34,6.34,0,0,0-6.34-6.34H65.53v-9.2h87.94A15.56,15.56,0,0,1,169,155.81v38.58a15.56,15.56,0,0,1-15.54,15.54H114.89a6.34,6.34,0,0,0-6.34,6.34Z"/><rect class="cls-3" x="129.27" y="140.27" width="9.82" height="9.2"/><rect class="cls-4" x="146.52" y="140.27" width="9.82" height="9.2" transform="translate(302.86 289.74) rotate(180)"/><rect class="cls-5" x="111.84" y="200.73" width="9.82" height="9.2"/><rect class="cls-6" x="129.1" y="200.73" width="9.82" height="9.2" transform="translate(268.01 410.65) rotate(180)"/><rect class="cls-7" x="159.5" y="170.67" width="9.82" height="9.2" transform="translate(339.68 10.86) rotate(90)"/><rect class="cls-8" x="159.5" y="187.92" width="9.82" height="9.2" transform="translate(-28.11 356.93) rotate(-90)"/><rect class="cls-9" x="68.99" y="140.27" width="9.82" height="9.2"/><rect class="cls-10" x="86.07" y="140.27" width="9.82" height="9.2" transform="translate(181.95 289.74) rotate(180)"/><path class="cls-11" d="M129.1,149.48v4.68a15.62,15.62,0,0,1-.86,5.14h-6.41v-9.82Z"/><path class="cls-12" d="M121.83,140.27v-4.68a15.66,15.66,0,0,1,.86-5.14h6.41v9.82Z"/><path class="cls-13" d="M108.55,223.21h4.68a15.62,15.62,0,0,1,5.14.86v6.4h-9.82Z"/><path class="cls-14" d="M99.34,230.47H94.67a15.88,15.88,0,0,1-5.14-.85v-6.41h9.81Z"/><path class="cls-15" d="M159.8,170h-4.67a15.62,15.62,0,0,1-5.14-.86v-6.41h9.81Z"/><path class="cls-16" d="M169,162.75h4.68a15.62,15.62,0,0,1,5.14.86V170H169Z"/><path class="cls-17" d="M139.26,200.72v-4.67a15.62,15.62,0,0,1,.86-5.14h6.4v9.81Z"/><path class="cls-18" d="M146.52,209.93v4.68a15.88,15.88,0,0,1-.85,5.14h-6.41v-9.82Z"/><polygon class="cls-2" points="65.53 135 65.53 154.74 55.7 144.92 65.53 135"/><polygon class="cls-2" points="94.08 242.42 113.82 242.42 104 252.25 94.08 242.42"/><path class="cls-2" d="M218.74,155.4a10,10,0,0,1-5.2-1.31,8.76,8.76,0,0,1-3.37-3.68,13.36,13.36,0,0,1,0-11,8.76,8.76,0,0,1,3.37-3.68,11,11,0,0,1,10.41,0,8.68,8.68,0,0,1,3.36,3.68,13.26,13.26,0,0,1,0,11,8.68,8.68,0,0,1-3.36,3.68A10,10,0,0,1,218.74,155.4Zm0-3.58a5.44,5.44,0,0,0,3.19-.82,5.17,5.17,0,0,0,1.91-2.42,9.74,9.74,0,0,0,.63-3.66,9.5,9.5,0,0,0-.63-3.63,5.18,5.18,0,0,0-1.91-2.39,5.76,5.76,0,0,0-3.19-.88,5.43,5.43,0,0,0-3.18.82,5.15,5.15,0,0,0-1.91,2.42,9.73,9.73,0,0,0-.64,3.66,9.5,9.5,0,0,0,.64,3.63,5.12,5.12,0,0,0,1.91,2.39A5.67,5.67,0,0,0,218.74,151.82Z"/><path class="cls-2" d="M236.91,155.43a6.15,6.15,0,0,1-2.9-.6,4.7,4.7,0,0,1-1.73-1.53,6.19,6.19,0,0,1-.89-1.92,8.84,8.84,0,0,1-.32-1.82q-.06-.83-.06-1.2v-8.47h3.86V147c0,.34,0,.78,0,1.32a6.29,6.29,0,0,0,.35,1.61,3.2,3.2,0,0,0,1,1.36,2.9,2.9,0,0,0,1.88.54,4.09,4.09,0,0,0,1-.15,2.55,2.55,0,0,0,1.05-.6,3.18,3.18,0,0,0,.8-1.3,6.66,6.66,0,0,0,.31-2.25l2.18,1a8,8,0,0,1-.72,3.36,6.06,6.06,0,0,1-2.19,2.52A6.48,6.48,0,0,1,236.91,155.43Zm4.89-.45v-5h-.48V139.89h3.83V155Z"/><path class="cls-2" d="M247.39,142.82v-2.93h10.73v2.93ZM258.12,155a14.7,14.7,0,0,1-3.07.26,7.27,7.27,0,0,1-2.68-.53,3.56,3.56,0,0,1-1.8-1.6A4.68,4.68,0,0,1,250,151c0-.72,0-1.52,0-2.43V135.7h3.8v12.66c0,.59,0,1.11,0,1.58a2.16,2.16,0,0,0,.29,1.13,1.92,1.92,0,0,0,1.6.87,13.19,13.19,0,0,0,2.45-.12Z"/><path class="cls-2" d="M216.62,182.26a7.7,7.7,0,0,1-4-1,7.15,7.15,0,0,1-2.67-2.81,9.34,9.34,0,0,1,0-8.29,7.11,7.11,0,0,1,2.69-2.8,8.31,8.31,0,0,1,8,0,7.09,7.09,0,0,1,2.69,2.82,8.51,8.51,0,0,1,1,4.13,8.67,8.67,0,0,1-1,4.14,7.16,7.16,0,0,1-2.7,2.81A7.69,7.69,0,0,1,216.62,182.26Zm0-3.55a3.16,3.16,0,0,0,2.73-1.23,5.29,5.29,0,0,0,.9-3.18,5.21,5.21,0,0,0-.91-3.22,3.21,3.21,0,0,0-2.72-1.2,3.49,3.49,0,0,0-2,.56A3.31,3.31,0,0,0,213.4,172a6.28,6.28,0,0,0-.39,2.31,5.17,5.17,0,0,0,.92,3.22A3.2,3.2,0,0,0,216.62,178.71Z"/><path class="cls-2" d="M226.23,169.69v-2.94h9.67v2.94Zm2.38,12.15v-15c0-.38,0-.82,0-1.3a6.25,6.25,0,0,1,.23-1.47,3.24,3.24,0,0,1,.74-1.34,3.76,3.76,0,0,1,1.52-1.07,5.45,5.45,0,0,1,1.59-.31l1.31,0h1.87v3.08h-1.73a1.77,1.77,0,0,0-1.33.45,1.49,1.49,0,0,0-.43,1.08v15.93Z"/><path class="cls-2" d="M218.74,208.75a9.87,9.87,0,0,1-5.2-1.32,8.74,8.74,0,0,1-3.37-3.67,13.38,13.38,0,0,1,0-11,8.74,8.74,0,0,1,3.37-3.67,9.87,9.87,0,0,1,5.2-1.31,9.64,9.64,0,0,1,5.82,1.71,9.12,9.12,0,0,1,3.32,4.66l-3.83,1.06a5.09,5.09,0,0,0-5.31-3.86,5.7,5.7,0,0,0-3.19.85,5.21,5.21,0,0,0-1.92,2.41,10.7,10.7,0,0,0,0,7.29,5.13,5.13,0,0,0,1.92,2.4,5.62,5.62,0,0,0,3.19.86,5.11,5.11,0,0,0,5.31-3.86l3.83,1.06a9.12,9.12,0,0,1-3.32,4.66A9.65,9.65,0,0,1,218.74,208.75Z"/><path class="cls-2" d="M235.15,208.75a5.54,5.54,0,0,1-2.75-.63,4.27,4.27,0,0,1-1.71-1.66,4.7,4.7,0,0,1-.57-2.3,5.32,5.32,0,0,1,.32-1.91,3.83,3.83,0,0,1,1-1.53,5.64,5.64,0,0,1,1.93-1.11,13.76,13.76,0,0,1,2-.55c.77-.16,1.65-.31,2.63-.45l3.23-.48-1.37.75a2.66,2.66,0,0,0-.65-2,3,3,0,0,0-2.15-.63,4.24,4.24,0,0,0-1.74.41,2.36,2.36,0,0,0-1.28,1.44l-3.43-1.1a5.84,5.84,0,0,1,2.15-3,7.08,7.08,0,0,1,4.3-1.18,9.57,9.57,0,0,1,3.55.62,4.43,4.43,0,0,1,2.35,2.12,4.56,4.56,0,0,1,.53,1.68,17.79,17.79,0,0,1,.08,1.87v9.23h-3.32v-3.11l.47.65a7.27,7.27,0,0,1-2.38,2.2A6.87,6.87,0,0,1,235.15,208.75Zm.81-3a3.83,3.83,0,0,0,2.91-1.21,3.14,3.14,0,0,0,.92-2.23c0-.54.05-1,.05-1.36l1.12.28-2.74.46c-.7.13-1.26.24-1.69.35a9.2,9.2,0,0,0-1.13.33,3.71,3.71,0,0,0-.9.48,1.91,1.91,0,0,0-.51.57,1.56,1.56,0,0,0-.16.69,1.5,1.5,0,0,0,.26.88,1.61,1.61,0,0,0,.73.57A3,3,0,0,0,236,205.75Z"/><path class="cls-2" d="M253.9,208.75a7.53,7.53,0,0,1-4-1.05,7,7,0,0,1-2.57-2.85,9.12,9.12,0,0,1-.89-4.07,8.77,8.77,0,0,1,.93-4.09,7,7,0,0,1,2.62-2.84,7.51,7.51,0,0,1,4-1,7.33,7.33,0,0,1,4.48,1.35,6,6,0,0,1,2.31,3.69l-3.8,1a3.48,3.48,0,0,0-1.16-1.83,3,3,0,0,0-1.88-.66,3.22,3.22,0,0,0-2,.58,3.41,3.41,0,0,0-1.13,1.58,6.42,6.42,0,0,0-.37,2.26,5.31,5.31,0,0,0,.88,3.19,3,3,0,0,0,2.59,1.22,2.86,2.86,0,0,0,1.95-.58,3.5,3.5,0,0,0,1-1.68l3.88.81a6.39,6.39,0,0,1-2.43,3.71A7.33,7.33,0,0,1,253.9,208.75Z"/><path class="cls-2" d="M263.51,208.33V188.2h3.38v10.34h.48v9.79Zm10.31,0V201.2c0-.35,0-.79-.05-1.32a6.2,6.2,0,0,0-.35-1.61,3.06,3.06,0,0,0-1-1.36,2.9,2.9,0,0,0-1.88-.55,4.19,4.19,0,0,0-1.05.16,2.54,2.54,0,0,0-1,.59,3.22,3.22,0,0,0-.81,1.3,6.64,6.64,0,0,0-.31,2.26l-2.18-1a7.77,7.77,0,0,1,.73-3.35,6,6,0,0,1,2.18-2.53,6.58,6.58,0,0,1,3.68-1,6.12,6.12,0,0,1,2.9.6,4.89,4.89,0,0,1,1.74,1.52,6.37,6.37,0,0,1,.88,1.92,9,9,0,0,1,.32,1.83q.06.83.06,1.2v8.47Z"/><path class="cls-2" d="M288.33,208.75a8.23,8.23,0,0,1-4.09-1,7.27,7.27,0,0,1-2.77-2.76,8,8,0,0,1-1-4,9,9,0,0,1,1-4.31,7.11,7.11,0,0,1,2.7-2.84,7.6,7.6,0,0,1,4-1,7.11,7.11,0,0,1,4,1.12,6.6,6.6,0,0,1,2.46,3.15,10.45,10.45,0,0,1,.56,4.76H291.4v-1.39a5.76,5.76,0,0,0-.73-3.32,2.76,2.76,0,0,0-2.4-1,3.43,3.43,0,0,0-2.86,1.18,5.63,5.63,0,0,0-.91,3.49,5.12,5.12,0,0,0,.91,3.26,3.24,3.24,0,0,0,2.69,1.15,3.65,3.65,0,0,0,1.92-.48,3.08,3.08,0,0,0,1.21-1.42l3.81,1.1a6.78,6.78,0,0,1-2.69,3.21A7.51,7.51,0,0,1,288.33,208.75Zm-5-6.91V199h10v2.82Z"/></g></svg>