<svg xmlns="http://www.w3.org/2000/svg" viewBox="0 0 350 350"><defs><style>.cls-1{fill:#fff;}</style></defs><g id="Main"><g id="Rings"><path class="cls-1" d="M59,147.47H49.59a8,8,0,0,0-8,8v9.38a8,8,0,0,0,8,8H59a8,8,0,0,0,7.57-5.41,7.71,7.71,0,0,0,.44-2.6v-9.38A8,8,0,0,0,59,147.47Zm4.34,17.39A4.35,4.35,0,0,1,59,169.21H49.59a4.35,4.35,0,0,1-4.35-4.35v-9.38a4.35,4.35,0,0,1,4.35-4.34H59a4.35,4.35,0,0,1,4.34,4.34Z"/><path class="cls-1" d="M89.5,147.47H80.12a8,8,0,0,0-8,8v9.38a8,8,0,0,0,8,8H89.5a8,8,0,0,0,8-8v-9.38A8,8,0,0,0,89.5,147.47Zm4.34,17.39a4.34,4.34,0,0,1-4.34,4.35H80.12a4.35,4.35,0,0,1-4.34-4.35v-9.38a4.35,4.35,0,0,1,4.34-4.34H89.5a4.34,4.34,0,0,1,4.34,4.34Z"/><path class="cls-1" d="M59,178H49.59a8,8,0,0,0-8,8v9.38a8,8,0,0,0,8,8H59a8,8,0,0,0,8-8V186A8,8,0,0,0,59,178Zm4.34,17.39A4.35,4.35,0,0,1,59,199.74H49.59a4.35,4.35,0,0,1-4.35-4.34V186a4.35,4.35,0,0,1,4.35-4.35H59A4.35,4.35,0,0,1,63.31,186Z"/><path class="cls-1" d="M89.5,178H80.12a8,8,0,0,0-8,8v9.38a8,8,0,0,0,8,8H89.5a8,8,0,0,0,8-8V186A8,8,0,0,0,89.5,178Zm4.34,17.39a4.34,4.34,0,0,1-4.34,4.34H80.12a4.35,4.35,0,0,1-4.34-4.34V186a4.35,4.35,0,0,1,4.34-4.35H89.5A4.34,4.34,0,0,1,93.84,186Z"/></g><path class="cls-1" d="M56.6,209.44H52V196.23a7.86,7.86,0,0,1,7.85-7.85H79.29a3.2,3.2,0,0,0,3.2-3.2V165.7a3.2,3.2,0,0,0-3.2-3.2H34.87v-4.65H79.29a7.85,7.85,0,0,1,7.84,7.85v19.48A7.85,7.85,0,0,1,79.29,193H59.8a3.21,3.21,0,0,0-3.2,3.2Z"/><polygon class="cls-1" points="34.87 155.19 34.87 165.16 29.91 160.2 34.87 155.19"/><polygon class="cls-1" points="49.29 209.44 59.26 209.44 54.3 214.41 49.29 209.44"/><path class="cls-1" d="M125.36,184.71a11.5,11.5,0,0,1-6-1.53,10.07,10.07,0,0,1-3.92-4.27,15.48,15.48,0,0,1,0-12.78,10.09,10.09,0,0,1,3.92-4.28,12.75,12.75,0,0,1,12.11,0,10.16,10.16,0,0,1,3.92,4.28,15.59,15.59,0,0,1,0,12.78,10.13,10.13,0,0,1-3.92,4.27A11.56,11.56,0,0,1,125.36,184.71Zm0-4.16a6.37,6.37,0,0,0,3.71-1,6,6,0,0,0,2.22-2.81,11.38,11.38,0,0,0,.74-4.26,11.07,11.07,0,0,0-.74-4.23,6,6,0,0,0-2.22-2.78,6.79,6.79,0,0,0-3.71-1,6.39,6.39,0,0,0-3.71,1,6,6,0,0,0-2.21,2.82,11.1,11.1,0,0,0-.75,4.26,11,11,0,0,0,.75,4.23,6.08,6.08,0,0,0,2.21,2.78A6.72,6.72,0,0,0,125.36,180.55Z"/><path class="cls-1" d="M146.5,184.75a7.18,7.18,0,0,1-3.37-.7,5.58,5.58,0,0,1-2-1.78,7.25,7.25,0,0,1-1-2.23,11.63,11.63,0,0,1-.38-2.12c0-.64-.06-1.11-.06-1.4v-9.86h4.49V175q0,.6.06,1.53a7,7,0,0,0,.41,1.88,3.62,3.62,0,0,0,1.11,1.58,3.4,3.4,0,0,0,2.19.63,4.62,4.62,0,0,0,1.22-.18,3.07,3.07,0,0,0,1.22-.69,3.61,3.61,0,0,0,.93-1.51,7.65,7.65,0,0,0,.37-2.63l2.54,1.21a9.18,9.18,0,0,1-.85,3.9,7,7,0,0,1-2.54,2.94A7.65,7.65,0,0,1,146.5,184.75Zm5.69-.52V178.4h-.55V166.66h4.46v17.57Z"/><path class="cls-1" d="M158.7,170.08v-3.42h12.48v3.42Zm12.48,14.15a18.15,18.15,0,0,1-3.56.3,8.72,8.72,0,0,1-3.13-.62,4.2,4.2,0,0,1-2.08-1.86,5.34,5.34,0,0,1-.69-2.45q0-1.24,0-2.82v-15h4.42v14.74c0,.68,0,1.3,0,1.84a2.46,2.46,0,0,0,.33,1.31,2.21,2.21,0,0,0,1.87,1,14.84,14.84,0,0,0,2.84-.13Z"/><path class="cls-1" d="M189.49,184.71a9,9,0,0,1-4.65-1.18,8.32,8.32,0,0,1-3.11-3.28,10.1,10.1,0,0,1-1.11-4.81,9.91,9.91,0,0,1,1.14-4.83,8.19,8.19,0,0,1,3.13-3.26,8.87,8.87,0,0,1,4.6-1.18,9,9,0,0,1,4.66,1.19,8.24,8.24,0,0,1,3.13,3.28,10.82,10.82,0,0,1,0,9.63,8.28,8.28,0,0,1-3.14,3.26A9,9,0,0,1,189.49,184.71Zm0-4.13a3.67,3.67,0,0,0,3.18-1.44,6.12,6.12,0,0,0,1.05-3.7,6,6,0,0,0-1.06-3.74,3.73,3.73,0,0,0-3.17-1.4,4,4,0,0,0-2.37.66,3.79,3.79,0,0,0-1.37,1.8,7.38,7.38,0,0,0-.45,2.68,6,6,0,0,0,1.06,3.75A3.71,3.71,0,0,0,189.49,180.58Z"/><path class="cls-1" d="M200.69,170.08v-3.42h11.25v3.42Zm2.76,14.15v-17.5c0-.45,0-.95,0-1.52a7.25,7.25,0,0,1,.27-1.7,3.78,3.78,0,0,1,.87-1.56,4.26,4.26,0,0,1,1.76-1.25,6.3,6.3,0,0,1,1.85-.36l1.53,0h2.18v3.58h-2a2,2,0,0,0-1.54.53,1.74,1.74,0,0,0-.51,1.26v18.54Z"/><path class="cls-1" d="M231.09,184.71a11.5,11.5,0,0,1-6.05-1.53,10.07,10.07,0,0,1-3.92-4.27,15.48,15.48,0,0,1,0-12.78,10.09,10.09,0,0,1,3.92-4.28,11.5,11.5,0,0,1,6.05-1.53,11.23,11.23,0,0,1,6.78,2,10.64,10.64,0,0,1,3.86,5.42L237.27,169a6.34,6.34,0,0,0-2.19-3.31,7.36,7.36,0,0,0-7.7-.18,6.06,6.06,0,0,0-2.24,2.79,12.39,12.39,0,0,0,0,8.49,6.08,6.08,0,0,0,2.24,2.8,6.55,6.55,0,0,0,3.71,1,6,6,0,0,0,6.18-4.49l4.46,1.24a10.65,10.65,0,0,1-3.86,5.41A11.16,11.16,0,0,1,231.09,184.71Z"/><path class="cls-1" d="M250.18,184.71A6.54,6.54,0,0,1,247,184a4.9,4.9,0,0,1-2-1.94,5.37,5.37,0,0,1-.67-2.67,6.36,6.36,0,0,1,.37-2.23,4.62,4.62,0,0,1,1.22-1.78,6.66,6.66,0,0,1,2.25-1.29,16.77,16.77,0,0,1,2.32-.64c.9-.18,1.92-.36,3.06-.52l3.75-.57-1.59.88a3.08,3.08,0,0,0-.75-2.29,3.49,3.49,0,0,0-2.5-.73,5,5,0,0,0-2,.47,2.69,2.69,0,0,0-1.48,1.67l-4-1.26a6.76,6.76,0,0,1,2.5-3.55,8.25,8.25,0,0,1,5-1.37,11.07,11.07,0,0,1,4.13.72,5.18,5.18,0,0,1,2.73,2.47,5.28,5.28,0,0,1,.62,1.95c.06.65.1,1.38.1,2.18v10.74h-3.87v-3.62l.55.75a8.34,8.34,0,0,1-2.77,2.56A8,8,0,0,1,250.18,184.71Zm.95-3.48a4.38,4.38,0,0,0,2.05-.43,4.61,4.61,0,0,0,1.34-1,4.3,4.3,0,0,0,.67-.93,4.46,4.46,0,0,0,.4-1.67c0-.63.06-1.16.06-1.58l1.3.32c-1.31.22-2.38.4-3.19.55s-1.47.28-2,.4a11,11,0,0,0-1.31.39,4.23,4.23,0,0,0-1,.56,2,2,0,0,0-.59.66,1.73,1.73,0,0,0-.18.79,1.84,1.84,0,0,0,.29,1,2.07,2.07,0,0,0,.86.66A3.51,3.51,0,0,0,251.13,181.23Z"/><path class="cls-1" d="M272,184.71a8.62,8.62,0,0,1-4.69-1.22,8.11,8.11,0,0,1-3-3.31,10.58,10.58,0,0,1-1-4.74,10.27,10.27,0,0,1,1.08-4.76,8.17,8.17,0,0,1,3.05-3.3,8.75,8.75,0,0,1,4.65-1.21,8.51,8.51,0,0,1,5.21,1.57A6.93,6.93,0,0,1,280,172l-4.42,1.17a4,4,0,0,0-1.36-2.13,3.42,3.42,0,0,0-2.18-.77,3.72,3.72,0,0,0-2.3.68,3.91,3.91,0,0,0-1.31,1.84,7.42,7.42,0,0,0-.43,2.62,6.25,6.25,0,0,0,1,3.72,3.46,3.46,0,0,0,3,1.42,3.36,3.36,0,0,0,2.27-.68,4.18,4.18,0,0,0,1.17-2l4.52.94a7.46,7.46,0,0,1-2.83,4.31A8.45,8.45,0,0,1,272,184.71Z"/><path class="cls-1" d="M283.2,184.23V160.81h3.93v12h.55v11.39Zm12,0v-8.3c0-.4,0-.91-.07-1.53a6.68,6.68,0,0,0-.41-1.88,3.46,3.46,0,0,0-1.11-1.58,3.36,3.36,0,0,0-2.19-.64,5.07,5.07,0,0,0-1.22.18,3,3,0,0,0-1.22.7,3.75,3.75,0,0,0-.93,1.5,7.86,7.86,0,0,0-.37,2.63l-2.53-1.2a9.17,9.17,0,0,1,.84-3.9,7,7,0,0,1,2.55-3,7.67,7.67,0,0,1,4.28-1.12,7.18,7.18,0,0,1,3.37.7,5.57,5.57,0,0,1,2,1.77,7.69,7.69,0,0,1,1,2.24,11.55,11.55,0,0,1,.37,2.12c0,.64.06,1.11.06,1.4v9.86Z"/><path class="cls-1" d="M312.07,184.71a9.42,9.42,0,0,1-4.75-1.16,8.39,8.39,0,0,1-3.22-3.2,9.23,9.23,0,0,1-1.16-4.68,10.47,10.47,0,0,1,1.14-5,8.26,8.26,0,0,1,3.13-3.31,9,9,0,0,1,4.6-1.18,8.25,8.25,0,0,1,4.71,1.31,7.66,7.66,0,0,1,2.86,3.65,12.26,12.26,0,0,1,.65,5.55h-4.38v-1.63a6.72,6.72,0,0,0-.85-3.86A3.23,3.23,0,0,0,312,170a4,4,0,0,0-3.33,1.38,6.52,6.52,0,0,0-1.06,4.05,6,6,0,0,0,1.06,3.8,3.76,3.76,0,0,0,3.13,1.34A4.18,4.18,0,0,0,314,180a3.63,3.63,0,0,0,1.42-1.64l4.42,1.27a7.83,7.83,0,0,1-3.13,3.74A8.66,8.66,0,0,1,312.07,184.71Zm-5.82-8v-3.29H317.9v3.29Z"/></g></svg>