<svg xmlns="http://www.w3.org/2000/svg" viewBox="0 0 350 350"><defs><style>.cls-1{fill:#135bea;}.cls-2{fill:#fff;}</style></defs><g id="Bg"><rect class="cls-1" width="350" height="350"/></g><g id="Main"><g id="Rings"><path class="cls-2" d="M131.74,60.61H93.37A32.8,32.8,0,0,0,60.61,93.37v38.37A32.8,32.8,0,0,0,93.37,164.5h38.37a32.82,32.82,0,0,0,31-22.14,32.46,32.46,0,0,0,1.77-10.62V93.37A32.8,32.8,0,0,0,131.74,60.61Zm17.76,71.13a17.78,17.78,0,0,1-17.76,17.76H93.37a17.78,17.78,0,0,1-17.76-17.76V93.37A17.78,17.78,0,0,1,93.37,75.61h38.37A17.78,17.78,0,0,1,149.5,93.37Z"/><path class="cls-2" d="M256.63,60.61H218.26A32.8,32.8,0,0,0,185.5,93.37v38.37a32.8,32.8,0,0,0,32.76,32.76h38.37a32.8,32.8,0,0,0,32.76-32.76V93.37A32.8,32.8,0,0,0,256.63,60.61Zm17.76,71.13a17.78,17.78,0,0,1-17.76,17.76H218.26a17.78,17.78,0,0,1-17.76-17.76V93.37a17.78,17.78,0,0,1,17.76-17.76h38.37a17.78,17.78,0,0,1,17.76,17.76Z"/><path class="cls-2" d="M131.74,185.5H93.37a32.8,32.8,0,0,0-32.76,32.76v38.37a32.8,32.8,0,0,0,32.76,32.76h38.37a32.8,32.8,0,0,0,32.76-32.76V218.26A32.8,32.8,0,0,0,131.74,185.5Zm17.76,71.13a17.78,17.78,0,0,1-17.76,17.76H93.37a17.78,17.78,0,0,1-17.76-17.76V218.26A17.78,17.78,0,0,1,93.37,200.5h38.37a17.78,17.78,0,0,1,17.76,17.76Z"/><path class="cls-2" d="M256.63,185.5H218.26a32.8,32.8,0,0,0-32.76,32.76v38.37a32.8,32.8,0,0,0,32.76,32.76h38.37a32.8,32.8,0,0,0,32.76-32.76V218.26A32.8,32.8,0,0,0,256.63,185.5Zm17.76,71.13a17.78,17.78,0,0,1-17.76,17.76H218.26a17.78,17.78,0,0,1-17.76-17.76V218.26a17.78,17.78,0,0,1,17.76-17.76h38.37a17.78,17.78,0,0,1,17.76,17.76Z"/></g><path class="cls-2" d="M122.06,314.07h-19V260a32.13,32.13,0,0,1,32.09-32.1h79.7a13.1,13.1,0,0,0,13.09-13.09v-79.7a13.1,13.1,0,0,0-13.09-13.09H33.19v-19H214.85a32.12,32.12,0,0,1,32.09,32.09v79.7a32.12,32.12,0,0,1-32.09,32.09h-79.7A13.11,13.11,0,0,0,122.06,260Z"/><polygon class="cls-2" points="33.19 92.16 33.19 132.95 12.89 112.66 33.19 92.16"/><polygon class="cls-2" points="92.16 314.07 132.95 314.07 112.66 334.37 92.16 314.07"/></g></svg>